<?xml version="1.0" encoding="utf-8"?><svg xmlns="http://www.w3.org/2000/svg" xmlns:xlink="http://www.w3.org/1999/xlink"><symbol viewBox="0 0 250.579 250.579" id="ic-burger" xmlns="http://www.w3.org/2000/svg"><path d="M22.373 76.068h205.832c12.356 0 22.374-10.017 22.374-22.373 0-12.356-10.017-22.373-22.374-22.373H22.373C10.017 31.323 0 41.339 0 53.696c0 12.356 10.017 22.372 22.373 22.372zm205.832 26.848H22.373C10.017 102.916 0 112.933 0 125.289c0 12.357 10.017 22.373 22.373 22.373h205.832c12.356 0 22.374-10.016 22.374-22.373 0-12.356-10.018-22.373-22.374-22.373zm0 71.594H22.373C10.017 174.51 0 184.526 0 196.883c0 12.356 10.017 22.373 22.373 22.373h205.832c12.356 0 22.374-10.017 22.374-22.373 0-12.357-10.018-22.373-22.374-22.373z" fill-rule="evenodd" clip-rule="evenodd"/></symbol><symbol viewBox="0 0 352 512" id="ic-close" xmlns="http://www.w3.org/2000/svg"><path d="M242.72 256l100.07-100.07c12.28-12.28 12.28-32.19 0-44.48l-22.24-22.24c-12.28-12.28-32.19-12.28-44.48 0L176 189.28 75.93 89.21c-12.28-12.28-32.19-12.28-44.48 0L9.21 111.45c-12.28 12.28-12.28 32.19 0 44.48L109.28 256 9.21 356.07c-12.28 12.28-12.28 32.19 0 44.48l22.24 22.24c12.28 12.28 32.2 12.28 44.48 0L176 322.72l100.07 100.07c12.28 12.28 32.2 12.28 44.48 0l22.24-22.24c12.28-12.28 12.28-32.19 0-44.48L242.72 256z"/></symbol></svg>